# xmcd
#
# Track frame offsets: 
#        150
#        22853
#        47057
#        63676
#        87757
#        113376
#        135697
#        158380
#        176481
#        202658
#
# Disc length: 2996 seconds
#
# Revision: 1
# Processed by: cddbd v1.5.2PL0 Copyright (c) Steve Scherf et al.
# Submitted via: ExactAudioCopy v1.3
#
DISCID=6d0bb20a
DTITLE=Joey Gilmore - The Ghosts of Mississippi Meet the Gods of Afric
DTITLE=a
DYEAR=2005
DGENRE=Blues
TTITLE0=The Ghosts of Mississippi
TTITLE1=All My Love
TTITLE2=Blues All Over You
TTITLE3=Love to See You Smile
TTITLE4=You Put the Rush on Me
TTITLE5=White Shoes
TTITLE6=Steal Away
TTITLE7=The Hawk
TTITLE8=Time to Get Paid
TTITLE9=Things Have Not Changed
EXTD=YEAR: 2005
EXTT0=
EXTT1=
EXTT2=
EXTT3=
EXTT4=
EXTT5=
EXTT6=
EXTT7=
EXTT8=
EXTT9=
PLAYORDER=
